<?xml version="1.0" encoding="UTF-8"?>
<svg width="20px" height="20px" viewBox="0 0 20 20" version="1.1" xmlns="http://www.w3.org/2000/svg" xmlns:xlink="http://www.w3.org/1999/xlink">
    <!-- Generator: Sketch 46.2 (44496) - http://www.bohemiancoding.com/sketch -->
    <title>facebook</title>
    <desc>Created with Sketch.</desc>
    <defs></defs>
    <g id="v3" stroke="none" stroke-width="1" fill="none" fill-rule="evenodd">
        <g id="Homepage-v3-hero" transform="translate(-1145.000000, -3370.000000)" fill-rule="nonzero" fill="#FFFFFF">
            <g id="footer" transform="translate(0.000000, 3307.000000)">
                <g id="Group-2" transform="translate(1145.000000, 63.000000)">
                    <g id="facebook">
                        <path d="M10.1388,0.0628 C4.6988,0.0628 0.2888,4.4736 0.2888,9.9128 C0.2888,15.3528 4.6988,19.762 10.1388,19.762 C15.5788,19.762 19.9888,15.3528 19.9888,9.9128 C19.9888,4.4736 15.5784,0.0628 10.1388,0.0628 Z M12.7456,9.8716 L11.04,9.8716 C11.04,12.5972 11.04,15.9544 11.04,15.9544 L8.512,15.9544 C8.512,15.9544 8.512,12.6316 8.512,9.8716 L7.3096,9.8716 L7.3096,7.724 L8.512,7.724 L8.512,6.3324 C8.512,5.3364 8.9848,3.7816 11.0636,3.7816 L12.9356,3.7888 L12.9356,5.8748 C12.9356,5.8748 11.7972,5.8748 11.5764,5.8748 C11.3544,5.8748 11.0404,5.9856 11.0404,6.4592 L11.0404,7.7244 L12.9676,7.7244 L12.7456,9.8716 Z" id="Shape"></path>
                    </g>
                </g>
            </g>
        </g>
    </g>
</svg>