<?xml version="1.0" encoding="UTF-8"?>
<svg width="20px" height="20px" viewBox="0 0 20 20" version="1.1" xmlns="http://www.w3.org/2000/svg" xmlns:xlink="http://www.w3.org/1999/xlink">
    <!-- Generator: Sketch 46.2 (44496) - http://www.bohemiancoding.com/sketch -->
    <title>slack</title>
    <desc>Created with Sketch.</desc>
    <defs></defs>
    <g id="v3" stroke="none" stroke-width="1" fill="none" fill-rule="evenodd">
        <g id="Homepage-v3-hero" transform="translate(-1240.000000, -3370.000000)" fill-rule="nonzero" fill="#FFFFFF">
            <g id="footer" transform="translate(0.000000, 3307.000000)">
                <g id="Group-2" transform="translate(1145.000000, 63.000000)">
                    <g id="slack" transform="translate(95.000000, 0.000000)">
                        <rect id="Rectangle-path" transform="translate(10.123708, 10.039952) rotate(-108.601632) translate(-10.123708, -10.039952) " x="9.00400019" y="8.89664245" width="2.23941611" height="2.28661814"></rect>
                        <path d="M10.13296,0.22016 C4.69316,0.22016 0.283,4.62952 0.283,10.06936 C0.283,15.50924 4.69316,19.91936 10.13296,19.91936 C15.5724,19.91936 19.98256,15.50924 19.98256,10.06936 C19.98256,4.62952 15.57244,0.22016 10.13296,0.22016 Z M15.1324,11.62892 L14.07844,11.98368 L14.44092,13.06068 C14.61584,13.5804 14.33632,14.14348 13.81664,14.3184 C13.29692,14.49332 12.73384,14.2138 12.55892,13.69412 L12.19644,12.61708 L10.02936,13.34648 L10.39604,14.43592 C10.57096,14.95564 10.29144,15.51872 9.77176,15.69364 C9.25204,15.86856 8.68896,15.58908 8.51404,15.06936 L8.14736,13.97992 L7.1418,14.31836 C6.62208,14.49328 6.059,14.21376 5.88408,13.69408 C5.70916,13.17436 5.98864,12.61128 6.50836,12.43636 L7.51392,12.09792 L6.7996,9.9756 L5.76656,10.32328 C5.24684,10.4982 4.68376,10.21872 4.50884,9.699 C4.33392,9.17928 4.61344,8.6162 5.13312,8.44128 L6.16616,8.0936 L5.8246,7.07876 C5.64968,6.55908 5.9292,5.99596 6.44888,5.82108 C6.9686,5.64616 7.53168,5.92564 7.7066,6.44536 L8.04816,7.46016 L10.21524,6.73076 L9.86948,5.70352 C9.69456,5.1838 9.97408,4.62072 10.49376,4.4458 C11.01348,4.27088 11.57656,4.5504 11.75148,5.07008 L12.09724,6.09732 L13.12372,5.75184 C13.64344,5.57692 14.20652,5.8564 14.38144,6.37612 C14.55636,6.89584 14.27688,7.45892 13.75716,7.63384 L12.73068,7.97932 L13.445,10.10168 L14.49896,9.74692 C15.01868,9.572 15.58176,9.85152 15.75668,10.3712 C15.9316,10.89092 15.65212,11.454 15.1324,11.62892 Z" id="Shape"></path>
                    </g>
                </g>
            </g>
        </g>
    </g>
</svg>