<?xml version="1.0" encoding="UTF-8"?>
<svg width="21px" height="20px" viewBox="0 0 21 20" version="1.1" xmlns="http://www.w3.org/2000/svg" xmlns:xlink="http://www.w3.org/1999/xlink">
    <!-- Generator: Sketch 46.2 (44496) - http://www.bohemiancoding.com/sketch -->
    <title>twitter</title>
    <desc>Created with Sketch.</desc>
    <defs></defs>
    <g id="v3" stroke="none" stroke-width="1" fill="none" fill-rule="evenodd">
        <g id="Homepage-v3-hero" transform="translate(-1177.000000, -3370.000000)" fill-rule="nonzero" fill="#FFFFFF">
            <g id="footer" transform="translate(0.000000, 3307.000000)">
                <g id="Group-2" transform="translate(1145.000000, 63.000000)">
                    <g id="twitter" transform="translate(32.500000, 0.000000)">
                        <path d="M10.1392,0.0628 C4.6992,0.0628 0.2892,4.4736 0.2892,9.9128 C0.2892,15.3528 4.6992,19.762 10.1392,19.762 C15.5792,19.762 19.9884,15.3528 19.9884,9.9128 C19.9884,4.4736 15.5788,0.0628 10.1392,0.0628 Z M15.1008,7.9268 C15.106,8.0332 15.108,8.14 15.108,8.248 C15.108,11.5284 12.6112,15.3104 8.0456,15.3104 C6.644,15.3104 5.3388,14.8996 4.2404,14.1956 C4.4348,14.2184 4.632,14.23 4.8324,14.23 C5.9956,14.23 7.066,13.8332 7.9152,13.1676 C6.8292,13.1472 5.9128,12.4292 5.5968,11.4432 C5.748,11.4728 5.9036,11.4876 6.0636,11.4876 C6.29,11.4876 6.5092,11.458 6.7176,11.4008 C5.5816,11.1728 4.726,10.1688 4.726,8.9672 C4.726,8.9564 4.726,8.946 4.7264,8.9352 C5.0608,9.1212 5.4436,9.2328 5.8508,9.246 C5.1844,8.8 4.7464,8.0412 4.7464,7.1796 C4.7464,6.7248 4.8688,6.298 5.0824,5.9316 C6.3068,7.4332 8.136,8.4216 10.1992,8.5248 C10.1568,8.3436 10.1348,8.1536 10.1348,7.9592 C10.1348,6.5888 11.246,5.4772 12.6172,5.4772 C13.3312,5.4772 13.976,5.7788 14.4288,6.2608 C14.9944,6.15 15.5256,5.9428 16.0052,5.6584 C15.8192,6.2384 15.426,6.7248 14.9132,7.0316 C15.416,6.9716 15.8944,6.838 16.3392,6.6408 C16.0072,7.1396 15.586,7.5768 15.1008,7.9268 Z" id="Shape"></path>
                    </g>
                </g>
            </g>
        </g>
    </g>
</svg>