<?xml version="1.0" encoding="UTF-8"?>
<svg width="20px" height="20px" viewBox="0 0 20 20" version="1.1" xmlns="http://www.w3.org/2000/svg" xmlns:xlink="http://www.w3.org/1999/xlink">
    <!-- Generator: Sketch 46.2 (44496) - http://www.bohemiancoding.com/sketch -->
    <title>youtube</title>
    <desc>Created with Sketch.</desc>
    <defs></defs>
    <g id="v3" stroke="none" stroke-width="1" fill="none" fill-rule="evenodd">
        <g id="Homepage-v3-hero" transform="translate(-1210.000000, -3370.000000)">
            <g id="footer" transform="translate(0.000000, 3307.000000)">
                <g id="Group-2" transform="translate(1145.000000, 63.000000)">
                    <g id="youtube" transform="translate(65.000000, 0.000000)">
                        <g id="Filled_Icons" fill-rule="nonzero" fill="#FFFFFF">
                            <g id="Group">
                                <path d="M8.96,7.55666667 C8.83166667,7.48166667 8.6725,7.48083333 8.5425,7.555 C8.41333333,7.63 8.33333333,7.76666667 8.33333333,7.91666667 L8.33333333,12.005 C8.33333333,12.1533333 8.41166667,12.29 8.53916667,12.365 C8.60416667,12.4041667 8.6775,12.4216667 8.75,12.4216667 C8.82,12.4216667 8.89083333,12.4041667 8.95416667,12.3691667 L12.5233333,10.3633333 C12.6533333,10.29 12.7341667,10.1533333 12.7358333,10.0033333 C12.7366667,9.85333333 12.6583333,9.715 12.5291667,9.64083333 L8.96,7.55666667 Z" id="Shape"></path>
                                <path d="M10,0 C4.48583333,0 0,4.48583333 0,10 C0,15.5141667 4.48583333,20 10,20 C15.5141667,20 20,15.5141667 20,10 C20,4.48583333 15.5141667,0 10,0 Z M15.8333333,11.88 C15.8333333,13.1408333 14.8083333,14.1666667 13.5483333,14.1666667 L6.45083333,14.1666667 C5.19083333,14.1666667 4.16666667,13.1408333 4.16666667,11.88 L4.16666667,8.11916667 C4.16666667,6.85916667 5.19083333,5.83333333 6.45083333,5.83333333 L13.5483333,5.83333333 C14.8083333,5.83333333 15.8333333,6.85916667 15.8333333,8.11916667 L15.8333333,11.88 Z" id="Shape"></path>
                            </g>
                        </g>
                        <g id="Frames-24px">
                            <rect id="Rectangle-path" x="0" y="0" width="20" height="20"></rect>
                        </g>
                    </g>
                </g>
            </g>
        </g>
    </g>
</svg>